<?xml version="1.0" encoding="UTF-8"?>
<svg width="27px" height="27px" viewBox="0 0 27 27" version="1.1" xmlns="http://www.w3.org/2000/svg" xmlns:xlink="http://www.w3.org/1999/xlink">
    <!-- Generator: sketchtool 51.1 (57501) - http://www.bohemiancoding.com/sketch -->
    <title>11C20088-E30A-4E8E-8340-180068D1B910-419-00000EA769D4C240</title>
    <desc>Created with sketchtool.</desc>
    <defs>
        <filter x="-3.6%" y="-0.2%" width="110.0%" height="100.6%" filterUnits="objectBoundingBox" id="filter-1">
            <feOffset dx="1" dy="1" in="SourceAlpha" result="shadowOffsetOuter1"></feOffset>
            <feGaussianBlur stdDeviation="1" in="shadowOffsetOuter1" result="shadowBlurOuter1"></feGaussianBlur>
            <feColorMatrix values="0 0 0 0 0   0 0 0 0 0   0 0 0 0 0  0 0 0 0.18 0" type="matrix" in="shadowBlurOuter1" result="shadowMatrixOuter1"></feColorMatrix>
            <feMerge>
                <feMergeNode in="shadowMatrixOuter1"></feMergeNode>
                <feMergeNode in="SourceGraphic"></feMergeNode>
            </feMerge>
        </filter>
        <path d="M23.9583339,12.4999996 L21.4166671,9.60416638 L21.7708338,5.77083316 L18.0104171,4.91666652 L16.041667,1.60416663 L12.5000003,3.12499991 L8.95833354,1.60416663 L6.98958349,4.91666652 L3.22916675,5.7604165 L3.58333342,9.59374971 L1.0416667,12.4999996 L3.58333342,15.3958329 L3.22916675,19.2395827 L6.98958349,20.0937494 L8.95833354,23.4062493 L12.5000003,21.8749993 L16.041667,23.3958326 L18.0104171,20.0833327 L21.7708338,19.2291661 L21.4166671,15.3958329 L23.9583339,12.4999996 L23.9583339,12.4999996 Z M13.5416665,17.7083334 L11.4583331,17.7083334 L11.4583331,15.625 L13.5416665,15.625 L13.5416665,17.7083334 L13.5416665,17.7083334 Z M13.5416665,13.5416668 L11.4583331,13.5416668 L11.4583331,7.29166679 L13.5416665,7.29166679 L13.5416665,13.5416668 L13.5416665,13.5416668 Z" id="path-2"></path>
    </defs>
    <g id="Appearance" stroke="none" stroke-width="1" fill="none" fill-rule="evenodd">
        <g id="All-Possible-Icons" transform="translate(-889.000000, -602.000000)">
            <g id="dropdowns" filter="url(#filter-1)" transform="translate(858.000000, 255.000000)">
                <g id="notifications" transform="translate(0.000000, 215.000000)">
                    <g id="rows">
                        <g id="5" transform="translate(0.000000, 128.000000)">
                            <g id="icon" transform="translate(31.000000, 4.000000)">
                                <g id="1.Atoms/icons/material-design/new-releases">
                                    <mask id="mask-3" fill="white">
                                        <use xlink:href="#path-2"></use>
                                    </mask>
                                    <g id="Mask"></g>
                                    <g id="Color-&amp;-Opacity" mask="url(#mask-3)" fill="#000000">
                                        <rect id="Color" x="0" y="0" width="25" height="25"></rect>
                                    </g>
                                </g>
                            </g>
                        </g>
                    </g>
                </g>
            </g>
        </g>
    </g>
</svg>