<?xml version="1.0" encoding="UTF-8"?>
<svg width="25px" height="25px" viewBox="0 0 25 25" version="1.1" xmlns="http://www.w3.org/2000/svg" xmlns:xlink="http://www.w3.org/1999/xlink">
    <!-- Generator: sketchtool 51.1 (57501) - http://www.bohemiancoding.com/sketch -->
    <title>6ED0BF13-F838-421B-9062-4F26C992499A-419-00000EA76F7E3405</title>
    <desc>Created with sketchtool.</desc>
    <defs>
        <filter x="-3.6%" y="-0.2%" width="110.0%" height="100.6%" filterUnits="objectBoundingBox" id="filter-1">
            <feOffset dx="1" dy="1" in="SourceAlpha" result="shadowOffsetOuter1"></feOffset>
            <feGaussianBlur stdDeviation="1" in="shadowOffsetOuter1" result="shadowBlurOuter1"></feGaussianBlur>
            <feColorMatrix values="0 0 0 0 0   0 0 0 0 0   0 0 0 0 0  0 0 0 0.18 0" type="matrix" in="shadowBlurOuter1" result="shadowMatrixOuter1"></feColorMatrix>
            <feMerge>
                <feMergeNode in="shadowMatrixOuter1"></feMergeNode>
                <feMergeNode in="SourceGraphic"></feMergeNode>
            </feMerge>
        </filter>
        <path d="M12.4999998,2.0833334 C6.74999995,2.0833334 2.0833334,6.74999995 2.0833334,12.4999998 C2.0833334,18.2499997 6.74999995,22.9166662 12.4999998,22.9166662 C18.2499997,22.9166662 22.9166662,18.2499997 22.9166662,12.4999998 C22.9166662,6.74999995 18.2499997,2.0833334 12.4999998,2.0833334 L12.4999998,2.0833334 Z M13.5416668,19.7916668 L11.4583334,19.7916668 L11.4583334,17.7083334 L13.5416668,17.7083334 L13.5416668,19.7916668 L13.5416668,19.7916668 Z M15.6979169,11.7187499 L14.7604169,12.6770832 C14.0104169,13.4374999 13.5416669,14.0624999 13.5416669,15.6249998 L11.4583335,15.6249998 L11.4583335,15.1041665 C11.4583335,13.9583332 11.9270835,12.9166665 12.6770835,12.1562499 L13.9687502,10.8437499 C14.3541669,10.4687499 14.5833336,9.94791662 14.5833336,9.37499996 C14.5833336,8.22916666 13.6458336,7.29166668 12.5000002,7.29166668 C11.3541668,7.29166668 10.4166668,8.22916666 10.4166668,9.37499996 L8.3333334,9.37499996 C8.3333334,7.07291668 10.1979168,5.2083334 12.5000002,5.2083334 C14.8020836,5.2083334 16.666667,7.07291668 16.666667,9.37499996 C16.666667,10.2916666 16.291667,11.1249999 15.6979169,11.7187499 L15.6979169,11.7187499 Z" id="path-2"></path>
    </defs>
    <g id="Appearance" stroke="none" stroke-width="1" fill="none" fill-rule="evenodd">
        <g id="All-Possible-Icons" transform="translate(-890.000000, -905.000000)">
            <g id="dropdowns" filter="url(#filter-1)" transform="translate(858.000000, 255.000000)">
                <g id="support" transform="translate(0.000000, 645.000000)">
                    <g id="rows">
                        <g id="1">
                            <g id="icon" transform="translate(31.000000, 4.000000)">
                                <g id="1.Atoms/icons/material-design/help">
                                    <mask id="mask-3" fill="white">
                                        <use xlink:href="#path-2"></use>
                                    </mask>
                                    <g id="Mask"></g>
                                    <g id="Color-&amp;-Opacity" mask="url(#mask-3)" fill="#000000">
                                        <rect id="Color" x="0" y="0" width="25" height="25"></rect>
                                    </g>
                                </g>
                            </g>
                        </g>
                    </g>
                </g>
            </g>
        </g>
    </g>
</svg>