<?xml version="1.0" encoding="UTF-8"?>
<svg width="23px" height="23px" viewBox="0 0 23 23" version="1.1" xmlns="http://www.w3.org/2000/svg" xmlns:xlink="http://www.w3.org/1999/xlink">
    <!-- Generator: sketchtool 51.1 (57501) - http://www.bohemiancoding.com/sketch -->
    <title>48045908-1AA4-4675-AF89-21157742E675-419-00000EA773094373</title>
    <desc>Created with sketchtool.</desc>
    <defs>
        <filter x="-3.6%" y="-0.2%" width="110.0%" height="100.6%" filterUnits="objectBoundingBox" id="filter-1">
            <feOffset dx="1" dy="1" in="SourceAlpha" result="shadowOffsetOuter1"></feOffset>
            <feGaussianBlur stdDeviation="1" in="shadowOffsetOuter1" result="shadowBlurOuter1"></feGaussianBlur>
            <feColorMatrix values="0 0 0 0 0   0 0 0 0 0   0 0 0 0 0  0 0 0 0.18 0" type="matrix" in="shadowBlurOuter1" result="shadowMatrixOuter1"></feColorMatrix>
            <feMerge>
                <feMergeNode in="shadowMatrixOuter1"></feMergeNode>
                <feMergeNode in="SourceGraphic"></feMergeNode>
            </feMerge>
        </filter>
        <path d="M12.4999998,10.4166664 C11.3541664,10.4166664 10.4166664,11.3541664 10.4166664,12.4999998 C10.4166664,13.6458332 11.3541664,14.5833332 12.4999998,14.5833332 C13.6458332,14.5833332 14.5833332,13.6458332 14.5833332,12.4999998 C14.5833332,11.3541664 13.6458332,10.4166664 12.4999998,10.4166664 L12.4999998,10.4166664 Z M19.7916667,3.125 L5.20833333,3.125 C4.05208333,3.125 3.125,4.0625 3.125,5.20833333 L3.125,19.7916667 C3.125,20.9375 4.05208333,21.875 5.20833333,21.875 L19.7916667,21.875 C20.9479167,21.875 21.875,20.9375 21.875,19.7916667 L21.875,5.20833333 C21.875,4.0625 20.9479167,3.125 19.7916667,3.125 L19.7916667,3.125 Z M17.9687503,12.4999998 C17.9687503,12.7395831 17.947917,12.9791665 17.916667,13.2083331 L19.4583337,14.4166664 C19.5937503,14.5312497 19.635417,14.7291664 19.541667,14.8854164 L18.0833336,17.4062496 C17.9895836,17.5624996 17.8020836,17.6249996 17.635417,17.5624996 L15.8229169,16.833333 C15.4479169,17.1249997 15.0312502,17.364583 14.5937502,17.552083 L14.3229169,19.4791662 C14.2916669,19.6562496 14.1354169,19.7916662 13.9583336,19.7916662 L11.0416668,19.7916662 C10.8645835,19.7916662 10.7083335,19.6562496 10.6770835,19.4895829 L10.4062501,17.5624996 C9.95833347,17.3749996 9.55208346,17.1354163 9.17708345,16.8437497 L7.36458341,17.5729163 C7.19791674,17.6354163 7.01041674,17.5729163 6.91666673,17.4166663 L5.45833337,14.8958331 C5.36458337,14.7395831 5.40625004,14.5416664 5.54166671,14.4270831 L7.08333341,13.2187498 C7.0520834,12.9791665 7.03125007,12.7395831 7.03125007,12.4999998 C7.03125007,12.2604165 7.0520834,12.0208332 7.08333341,11.7916665 L5.54166671,10.5833332 C5.40625004,10.4687499 5.36458337,10.2708332 5.45833337,10.1145832 L6.91666673,7.59374998 C7.01041674,7.43749999 7.19791674,7.37499999 7.36458341,7.43749999 L9.17708345,8.16666663 C9.55208346,7.87499997 9.96875013,7.63541665 10.4062501,7.44791665 L10.6770835,5.52083338 C10.7083335,5.34375006 10.8645835,5.2083334 11.0416668,5.2083334 L13.9583336,5.2083334 C14.1354169,5.2083334 14.2916669,5.34375006 14.3229169,5.51041672 L14.5937502,7.43749999 C15.0416669,7.62499998 15.4479169,7.8645833 15.8229169,8.15624996 L17.635417,7.42708332 C17.8020836,7.36458332 17.9895836,7.42708332 18.0833336,7.58333331 L19.541667,10.1041666 C19.635417,10.2604166 19.5937503,10.4583332 19.4583337,10.5729165 L17.916667,11.7812498 C17.947917,12.0208332 17.9687503,12.2604165 17.9687503,12.4999998 L17.9687503,12.4999998 Z" id="path-2"></path>
    </defs>
    <g id="Appearance" stroke="none" stroke-width="1" fill="none" fill-rule="evenodd">
        <g id="All-Possible-Icons" transform="translate(-891.000000, -1368.000000)">
            <g id="dropdowns" filter="url(#filter-1)" transform="translate(858.000000, 255.000000)">
                <g id="pref" transform="translate(0.000000, 1075.000000)">
                    <g id="rows">
                        <g id="2" transform="translate(0.000000, 32.000000)">
                            <g id="icon" transform="translate(31.000000, 4.000000)">
                                <g id="1.Atoms/icons/material-design/settings-application">
                                    <mask id="mask-3" fill="white">
                                        <use xlink:href="#path-2"></use>
                                    </mask>
                                    <g id="Mask"></g>
                                    <g id="Color-&amp;-Opacity" mask="url(#mask-3)" fill="#000000">
                                        <rect id="Color" x="0" y="0" width="25" height="25"></rect>
                                    </g>
                                </g>
                            </g>
                        </g>
                    </g>
                </g>
            </g>
        </g>
    </g>
</svg>