<?xml version="1.0" encoding="UTF-8"?>
<svg width="25px" height="25px" viewBox="0 0 25 25" version="1.1" xmlns="http://www.w3.org/2000/svg" xmlns:xlink="http://www.w3.org/1999/xlink">
    <!-- Generator: sketchtool 51.1 (57501) - http://www.bohemiancoding.com/sketch -->
    <title>C82DA8B6-D385-49C5-AA0E-8284A52C345D-419-00000EA76AA2BEB1</title>
    <desc>Created with sketchtool.</desc>
    <defs>
        <filter x="-3.6%" y="-0.2%" width="110.0%" height="100.6%" filterUnits="objectBoundingBox" id="filter-1">
            <feOffset dx="1" dy="1" in="SourceAlpha" result="shadowOffsetOuter1"></feOffset>
            <feGaussianBlur stdDeviation="1" in="shadowOffsetOuter1" result="shadowBlurOuter1"></feGaussianBlur>
            <feColorMatrix values="0 0 0 0 0   0 0 0 0 0   0 0 0 0 0  0 0 0 0.18 0" type="matrix" in="shadowBlurOuter1" result="shadowMatrixOuter1"></feColorMatrix>
            <feMerge>
                <feMergeNode in="shadowMatrixOuter1"></feMergeNode>
                <feMergeNode in="SourceGraphic"></feMergeNode>
            </feMerge>
        </filter>
        <path d="M12.4895831,2.0833334 C6.73958328,2.0833334 2.0833334,6.74999995 2.0833334,12.4999998 C2.0833334,18.2499997 6.73958328,22.9166662 12.4895831,22.9166662 C18.2499997,22.9166662 22.9166662,18.2499997 22.9166662,12.4999998 C22.9166662,6.74999995 18.2499997,2.0833334 12.4895831,2.0833334 L12.4895831,2.0833334 Z M19.7083337,8.33333321 L16.6354169,8.33333321 C16.3020836,7.03124994 15.8229169,5.78125 15.1979169,4.62500006 C17.1145836,5.28125003 18.7083337,6.61458329 19.7083337,8.33333321 L19.7083337,8.33333321 Z M12.5000002,4.20833342 C13.3645835,5.45833347 14.0416668,6.84375019 14.4895835,8.33333358 L10.5104169,8.33333358 C10.9583335,6.84375019 11.6354169,5.45833347 12.5000002,4.20833342 L12.5000002,4.20833342 Z M4.43750013,14.5833338 C4.27083346,13.9166671 4.16666679,13.2187504 4.16666679,12.5000004 C4.16666679,11.7812504 4.27083346,11.0833337 4.43750013,10.416667 L7.95833357,10.416667 C7.87500023,11.104167 7.81250023,11.791667 7.81250023,12.5000004 C7.81250023,13.2083337 7.87500023,13.8958337 7.95833357,14.5833338 L4.43750013,14.5833338 L4.43750013,14.5833338 Z M5.29166665,16.6666662 L8.36458343,16.6666662 C8.69791678,17.9687495 9.17708346,19.2187494 9.80208348,20.3749994 C7.88541675,19.7187494 6.29166669,18.3958328 5.29166665,16.6666662 L5.29166665,16.6666662 Z M8.36458343,8.33333321 L5.29166665,8.33333321 C6.29166669,6.60416663 7.88541675,5.28125003 9.80208348,4.62500006 C9.17708346,5.78125 8.69791678,7.03124994 8.36458343,8.33333321 L8.36458343,8.33333321 Z M12.5000002,20.7916664 C11.6354169,19.5416663 10.9583335,18.1562496 10.5104169,16.6666662 L14.4895835,16.6666662 C14.0416668,18.1562496 13.3645835,19.5416663 12.5000002,20.7916664 L12.5000002,20.7916664 Z M14.9374999,14.5833338 L10.0625001,14.5833338 C9.96875006,13.8958337 9.8958334,13.2083337 9.8958334,12.5000004 C9.8958334,11.791667 9.96875006,11.0937503 10.0625001,10.416667 L14.9374999,10.416667 C15.0312499,11.0937503 15.1041666,11.791667 15.1041666,12.5000004 C15.1041666,13.2083337 15.0312499,13.8958337 14.9374999,14.5833338 L14.9374999,14.5833338 Z M15.1979169,20.3749994 C15.8229169,19.2187494 16.3020836,17.9687495 16.6354169,16.6666662 L19.7083337,16.6666662 C18.7083337,18.3854161 17.1145836,19.7187494 15.1979169,20.3749994 L15.1979169,20.3749994 Z M17.0416674,14.5833338 C17.1250007,13.8958337 17.1875007,13.2083337 17.1875007,12.5000004 C17.1875007,11.791667 17.1250007,11.104167 17.0416674,10.416667 L20.5625008,10.416667 C20.7291675,11.0833337 20.8333341,11.7812504 20.8333341,12.5000004 C20.8333341,13.2187504 20.7291675,13.9166671 20.5625008,14.5833338 L17.0416674,14.5833338 L17.0416674,14.5833338 Z" id="path-2"></path>
    </defs>
    <g id="Appearance" stroke="none" stroke-width="1" fill="none" fill-rule="evenodd">
        <g id="All-Possible-Icons" transform="translate(-890.000000, -539.000000)">
            <g id="dropdowns" filter="url(#filter-1)" transform="translate(858.000000, 255.000000)">
                <g id="notifications" transform="translate(0.000000, 215.000000)">
                    <g id="rows">
                        <g id="3" transform="translate(0.000000, 64.000000)">
                            <g id="icon" transform="translate(31.000000, 4.000000)">
                                <g id="1.Atoms/icons/material-design/language">
                                    <mask id="mask-3" fill="white">
                                        <use xlink:href="#path-2"></use>
                                    </mask>
                                    <g id="Mask"></g>
                                    <g id="Color-&amp;-Opacity" mask="url(#mask-3)" fill="#000000">
                                        <rect id="Color" x="0" y="0" width="25" height="25"></rect>
                                    </g>
                                </g>
                            </g>
                        </g>
                    </g>
                </g>
            </g>
        </g>
    </g>
</svg>