<?xml version="1.0" encoding="UTF-8"?>
<svg width="21px" height="27px" viewBox="0 0 21 27" version="1.1" xmlns="http://www.w3.org/2000/svg" xmlns:xlink="http://www.w3.org/1999/xlink">
    <!-- Generator: sketchtool 51.1 (57501) - http://www.bohemiancoding.com/sketch -->
    <title>BFAD6291-8432-4BD9-A36A-49D14F4D10F8-419-00000EA76C948DBD</title>
    <desc>Created with sketchtool.</desc>
    <defs>
        <filter x="-3.6%" y="-0.2%" width="110.0%" height="100.6%" filterUnits="objectBoundingBox" id="filter-1">
            <feOffset dx="1" dy="1" in="SourceAlpha" result="shadowOffsetOuter1"></feOffset>
            <feGaussianBlur stdDeviation="1" in="shadowOffsetOuter1" result="shadowBlurOuter1"></feGaussianBlur>
            <feColorMatrix values="0 0 0 0 0   0 0 0 0 0   0 0 0 0 0  0 0 0 0.18 0" type="matrix" in="shadowBlurOuter1" result="shadowMatrixOuter1"></feColorMatrix>
            <feMerge>
                <feMergeNode in="shadowMatrixOuter1"></feMergeNode>
                <feMergeNode in="SourceGraphic"></feMergeNode>
            </feMerge>
        </filter>
        <path d="M14.0625004,0.697916685 C0.10416667,9.05083519e-09 14.8333338,3.45833339 14.8333338,5.69791675 C14.8333338,7.84375011 13.4270837,9.58333347 11.2812503,9.58333347 C9.12500027,9.58333347 7.50000022,7.84375011 7.50000022,5.69791675 L7.53125022,5.32291675 C5.4270835,7.82291678 4.16666679,11.0625002 4.16666679,14.5833335 C4.16666679,19.1875003 7.89583357,22.916667 12.5000004,22.916667 C17.1041672,22.916667 20.833334,19.1875003 20.833334,14.5833335 C20.833334,8.96875013 18.1354172,3.95833339 14.0625004,0.697916685 L14.0625004,0.697916685 Z M12.1979169,19.791667 C10.3437502,19.791667 8.84375013,18.3333336 8.84375013,16.5208336 C8.84375013,14.8333336 9.93750016,13.6458335 11.7708335,13.2708335 C13.6145836,12.8958335 15.5208337,12.0104168 16.5833337,10.5833335 C16.9895837,11.9270835 17.197917,13.3437502 17.197917,14.7916669 C17.197917,17.5520836 14.9583336,19.791667 12.1979169,19.791667 L12.1979169,19.791667 Z" id="path-2"></path>
    </defs>
    <g id="Appearance" stroke="none" stroke-width="1" fill="none" fill-rule="evenodd">
        <g id="All-Possible-Icons" transform="translate(-892.000000, -752.000000)">
            <g id="dropdowns" filter="url(#filter-1)" transform="translate(858.000000, 255.000000)">
                <g id="faqs" transform="translate(0.000000, 430.000000)">
                    <g id="rows">
                        <g id="3" transform="translate(0.000000, 64.000000)">
                            <g id="icon" transform="translate(31.000000, 4.000000)">
                                <g id="1.Atoms/icons/material-design/whatshot">
                                    <mask id="mask-3" fill="white">
                                        <use xlink:href="#path-2"></use>
                                    </mask>
                                    <g id="Mask"></g>
                                    <g id="Color-&amp;-Opacity" mask="url(#mask-3)" fill="#000000">
                                        <rect id="Color" x="0" y="0" width="25" height="25"></rect>
                                    </g>
                                </g>
                            </g>
                        </g>
                    </g>
                </g>
            </g>
        </g>
    </g>
</svg>