<?xml version="1.0" encoding="UTF-8"?>
<svg width="27px" height="27px" viewBox="0 0 27 27" version="1.1" xmlns="http://www.w3.org/2000/svg" xmlns:xlink="http://www.w3.org/1999/xlink">
    <!-- Generator: sketchtool 51.1 (57501) - http://www.bohemiancoding.com/sketch -->
    <title>7C7F85FF-73DE-413A-94D8-4920042DD40A-419-00000EA772A5DC62</title>
    <desc>Created with sketchtool.</desc>
    <defs>
        <filter x="-3.6%" y="-0.2%" width="110.0%" height="100.6%" filterUnits="objectBoundingBox" id="filter-1">
            <feOffset dx="1" dy="1" in="SourceAlpha" result="shadowOffsetOuter1"></feOffset>
            <feGaussianBlur stdDeviation="1" in="shadowOffsetOuter1" result="shadowBlurOuter1"></feGaussianBlur>
            <feColorMatrix values="0 0 0 0 0   0 0 0 0 0   0 0 0 0 0  0 0 0 0.18 0" type="matrix" in="shadowBlurOuter1" result="shadowMatrixOuter1"></feColorMatrix>
            <feMerge>
                <feMergeNode in="shadowMatrixOuter1"></feMergeNode>
                <feMergeNode in="SourceGraphic"></feMergeNode>
            </feMerge>
        </filter>
        <path d="M5.20833336,2.08333339 C5.20833336,1.51041671 4.73958336,1.0416667 4.1666667,1.0416667 C3.59375003,1.0416667 3.12500003,1.51041671 3.12500003,2.08333339 L3.12500003,6.25000014 L1.0416667,6.25000014 L1.0416667,12.5000003 L7.2916667,12.5000003 L7.2916667,6.25000014 L5.20833336,6.25000014 L5.20833336,2.08333339 L5.20833336,2.08333339 Z M9.37500028,16.6666672 C9.37500028,18.0208339 10.2500003,19.1666672 11.4583336,19.6041672 L11.4583336,23.9583339 L13.5416669,23.9583339 L13.5416669,19.6041672 C14.7500003,19.1770839 15.6250003,18.0312505 15.6250003,16.6666672 L15.6250003,14.5833339 L9.37500028,14.5833339 L9.37500028,16.6666672 L9.37500028,16.6666672 Z M1.0416667,16.6666672 C1.0416667,18.0208339 1.9166667,19.1666672 3.12500003,19.6041672 L3.12500003,23.9583339 L5.20833336,23.9583339 L5.20833336,19.6041672 C6.4166667,19.1666672 7.2916667,18.0208339 7.2916667,16.6666672 L7.2916667,14.5833339 L1.0416667,14.5833339 L1.0416667,16.6666672 L1.0416667,16.6666672 Z M21.8750005,6.25000014 L21.8750005,2.08333339 C21.8750005,1.51041671 21.4062505,1.0416667 20.8333339,1.0416667 C20.2604172,1.0416667 19.7916672,1.51041671 19.7916672,2.08333339 L19.7916672,6.25000014 L17.7083339,6.25000014 L17.7083339,12.5000003 L23.9583339,12.5000003 L23.9583339,6.25000014 L21.8750005,6.25000014 L21.8750005,6.25000014 Z M13.5416669,2.08333339 C13.5416669,1.51041671 13.0729169,1.0416667 12.5000003,1.0416667 C11.9270836,1.0416667 11.4583336,1.51041671 11.4583336,2.08333339 L11.4583336,6.25000014 L9.37500028,6.25000014 L9.37500028,12.5000003 L15.6250003,12.5000003 L15.6250003,6.25000014 L13.5416669,6.25000014 L13.5416669,2.08333339 L13.5416669,2.08333339 Z M17.7083339,16.6666672 C17.7083339,18.0208339 18.5833339,19.1666672 19.7916672,19.6041672 L19.7916672,23.9583339 L21.8750005,23.9583339 L21.8750005,19.6041672 C23.0833339,19.1770839 23.9583339,18.0312505 23.9583339,16.6666672 L23.9583339,14.5833339 L17.7083339,14.5833339 L17.7083339,16.6666672 L17.7083339,16.6666672 Z" id="path-2"></path>
    </defs>
    <g id="Appearance" stroke="none" stroke-width="1" fill="none" fill-rule="evenodd">
        <g id="All-Possible-Icons" transform="translate(-889.000000, -1398.000000)">
            <g id="dropdowns" filter="url(#filter-1)" transform="translate(858.000000, 255.000000)">
                <g id="pref" transform="translate(0.000000, 1075.000000)">
                    <g id="rows">
                        <g id="3" transform="translate(0.000000, 64.000000)">
                            <g id="icon" transform="translate(31.000000, 4.000000)">
                                <g id="1.Atoms/icons/material-design/settings-input">
                                    <mask id="mask-3" fill="white">
                                        <use xlink:href="#path-2"></use>
                                    </mask>
                                    <g id="Mask"></g>
                                    <g id="Color-&amp;-Opacity" mask="url(#mask-3)" fill="#000000">
                                        <rect id="Color" x="0" y="0" width="25" height="25"></rect>
                                    </g>
                                </g>
                            </g>
                        </g>
                    </g>
                </g>
            </g>
        </g>
    </g>
</svg>