<?xml version="1.0" encoding="UTF-8"?>
<svg width="25px" height="19px" viewBox="0 0 25 19" version="1.1" xmlns="http://www.w3.org/2000/svg" xmlns:xlink="http://www.w3.org/1999/xlink">
    <!-- Generator: sketchtool 51.1 (57501) - http://www.bohemiancoding.com/sketch -->
    <title>50542C7C-92B6-48AE-927A-A46F317198D9-419-00000EA76FF6026D</title>
    <desc>Created with sketchtool.</desc>
    <defs>
        <filter x="-3.6%" y="-0.2%" width="110.0%" height="100.6%" filterUnits="objectBoundingBox" id="filter-1">
            <feOffset dx="1" dy="1" in="SourceAlpha" result="shadowOffsetOuter1"></feOffset>
            <feGaussianBlur stdDeviation="1" in="shadowOffsetOuter1" result="shadowBlurOuter1"></feGaussianBlur>
            <feColorMatrix values="0 0 0 0 0   0 0 0 0 0   0 0 0 0 0  0 0 0 0.18 0" type="matrix" in="shadowBlurOuter1" result="shadowMatrixOuter1"></feColorMatrix>
            <feMerge>
                <feMergeNode in="shadowMatrixOuter1"></feMergeNode>
                <feMergeNode in="SourceGraphic"></feMergeNode>
            </feMerge>
        </filter>
        <path d="M17.1875,12.4999998 C18.625,12.4999998 19.7812499,11.3333332 19.7812499,9.89583321 C19.7812499,8.45833324 18.625,7.2916666 17.1875,7.2916666 C15.75,7.2916666 14.5833334,8.45833324 14.5833334,9.89583321 C14.5833334,11.3333332 15.75,12.4999998 17.1875,12.4999998 L17.1875,12.4999998 Z M9.37500019,11.4583332 C11.1041669,11.4583332 12.4895835,10.0624999 12.4895835,8.33333321 C12.4895835,6.60416654 11.1041669,5.20833321 9.37500019,5.20833321 C7.64583352,5.20833321 6.25000019,6.60416654 6.25000019,8.33333321 C6.25000019,10.0624999 7.64583352,11.4583332 9.37500019,11.4583332 L9.37500019,11.4583332 Z M17.1875002,14.5833332 C15.2812501,14.5833332 11.4583334,15.5416665 11.4583334,17.4479165 L11.4583334,19.7916664 L22.916667,19.7916664 L22.916667,17.4479165 C22.916667,15.5416665 19.0937502,14.5833332 17.1875002,14.5833332 L17.1875002,14.5833332 Z M9.37499979,13.5416668 C6.94791655,13.5416668 2.0833334,14.7604168 2.0833334,17.1875001 L2.0833334,19.7916668 L9.37499979,19.7916668 L9.37499979,17.4479168 C9.37499979,16.5625001 9.71874977,15.0104168 11.8437497,13.8333335 C10.9374997,13.6458335 10.0624998,13.5416668 9.37499979,13.5416668 L9.37499979,13.5416668 Z" id="path-2"></path>
    </defs>
    <g id="Appearance" stroke="none" stroke-width="1" fill="none" fill-rule="evenodd">
        <g id="All-Possible-Icons" transform="translate(-890.000000, -1251.000000)">
            <g id="dropdowns" filter="url(#filter-1)" transform="translate(858.000000, 255.000000)">
                <g id="profile" transform="translate(0.000000, 860.000000)">
                    <g id="rows">
                        <g id="5" transform="translate(0.000000, 128.000000)">
                            <g id="icon" transform="translate(31.000000, 4.000000)">
                                <g id="1.Atoms/icons/material-design/supervisor-acct">
                                    <mask id="mask-3" fill="white">
                                        <use xlink:href="#path-2"></use>
                                    </mask>
                                    <g id="Mask"></g>
                                    <g id="Color-&amp;-Opacity" mask="url(#mask-3)" fill="#000000">
                                        <rect id="Color" x="0" y="0" width="25" height="25"></rect>
                                    </g>
                                </g>
                            </g>
                        </g>
                    </g>
                </g>
            </g>
        </g>
    </g>
</svg>