<?xml version="1.0" encoding="UTF-8"?>
<svg width="25px" height="25px" viewBox="0 0 25 25" version="1.1" xmlns="http://www.w3.org/2000/svg" xmlns:xlink="http://www.w3.org/1999/xlink">
    <!-- Generator: sketchtool 51.1 (57501) - http://www.bohemiancoding.com/sketch -->
    <title>E931D8DB-1451-43D7-A7F8-0408C9D56012-419-00000EA77394A1A7</title>
    <desc>Created with sketchtool.</desc>
    <defs>
        <filter x="-3.6%" y="-0.2%" width="110.0%" height="100.6%" filterUnits="objectBoundingBox" id="filter-1">
            <feOffset dx="1" dy="1" in="SourceAlpha" result="shadowOffsetOuter1"></feOffset>
            <feGaussianBlur stdDeviation="1" in="shadowOffsetOuter1" result="shadowBlurOuter1"></feGaussianBlur>
            <feColorMatrix values="0 0 0 0 0   0 0 0 0 0   0 0 0 0 0  0 0 0 0.18 0" type="matrix" in="shadowBlurOuter1" result="shadowMatrixOuter1"></feColorMatrix>
            <feMerge>
                <feMergeNode in="shadowMatrixOuter1"></feMergeNode>
                <feMergeNode in="SourceGraphic"></feMergeNode>
            </feMerge>
        </filter>
        <path d="M20.2395827,13.5208331 C20.2812494,13.1874998 20.3124994,12.8541665 20.3124994,12.4999998 C20.3124994,12.1458332 20.2812494,11.8124998 20.2395827,11.4791665 L22.4374993,9.76041655 C22.635416,9.60416655 22.6874993,9.32291656 22.5624993,9.09374989 L20.4791661,5.48958331 C20.3541661,5.26041665 20.0729161,5.17708332 19.8437494,5.26041665 L17.2499995,6.30208329 C16.7083329,5.88541664 16.1249995,5.54166665 15.4895829,5.28124999 L15.0937496,2.52083338 C15.0624996,2.27083339 14.8437496,2.0833334 14.5833329,2.0833334 L10.4166664,2.0833334 C10.1562497,2.0833334 9.93749975,2.27083339 9.90624975,2.52083338 L9.51041643,5.28124999 C8.87499978,5.54166665 8.29166647,5.8958333 7.74999982,6.30208329 L5.1562499,5.26041665 C4.91666658,5.16666666 4.64583325,5.26041665 4.52083325,5.48958331 L2.43749999,9.09374989 C2.30208333,9.32291656 2.36458332,9.60416655 2.56249998,9.76041655 L4.76041658,11.4791665 C4.71874992,11.8124998 4.68749992,12.1562498 4.68749992,12.4999998 C4.68749992,12.8437498 4.71874992,13.1874998 4.76041658,13.5208331 L2.56249998,15.2395831 C2.36458332,15.3958331 2.31249999,15.6770831 2.43749999,15.9062497 L4.52083325,19.5104163 C4.64583325,19.739583 4.92708324,19.8229163 5.1562499,19.739583 L7.74999982,18.6979163 C8.29166647,19.114583 8.87499978,19.458333 9.51041643,19.7187496 L9.90624975,22.4791662 C9.93749975,22.7291662 10.1562497,22.9166662 10.4166664,22.9166662 L14.5833329,22.9166662 C14.8437496,22.9166662 15.0624996,22.7291662 15.0937496,22.4791662 L15.4895829,19.7187496 C16.1249995,19.458333 16.7083329,19.1041663 17.2499995,18.6979163 L19.8437494,19.739583 C20.0833328,19.833333 20.3541661,19.739583 20.4791661,19.5104163 L22.5624993,15.9062497 C22.6874993,15.6770831 22.635416,15.3958331 22.4374993,15.2395831 L20.2395827,13.5208331 L20.2395827,13.5208331 Z M12.5,16.1458334 C10.4895834,16.1458334 8.85416679,14.5104168 8.85416679,12.5000002 C8.85416679,10.4895836 10.4895834,8.85416698 12.5,8.85416698 C14.5104166,8.85416698 16.1458332,10.4895836 16.1458332,12.5000002 C16.1458332,14.5104168 14.5104166,16.1458334 12.5,16.1458334 L12.5,16.1458334 Z" id="path-2"></path>
    </defs>
    <g id="Appearance" stroke="none" stroke-width="1" fill="none" fill-rule="evenodd">
        <g id="All-Possible-Icons" transform="translate(-890.000000, -1335.000000)">
            <g id="dropdowns" filter="url(#filter-1)" transform="translate(858.000000, 255.000000)">
                <g id="pref" transform="translate(0.000000, 1075.000000)">
                    <g id="rows">
                        <g id="1">
                            <g id="icon" transform="translate(31.000000, 4.000000)">
                                <g id="1.Atoms/icons/material-design/gear">
                                    <mask id="mask-3" fill="white">
                                        <use xlink:href="#path-2"></use>
                                    </mask>
                                    <g id="Mask"></g>
                                    <g id="Color-&amp;-Opacity" mask="url(#mask-3)" fill="#000000">
                                        <rect id="Color" x="0" y="0" width="25" height="25"></rect>
                                    </g>
                                </g>
                            </g>
                        </g>
                    </g>
                </g>
            </g>
        </g>
    </g>
</svg>